

[center]

[img]http://img62.imageshack.us/img62/441/thetheatrebizarreposter.jpg[/img]

The.Theater.Bizarre.2011.AC3-2.0.DVDSCR.XviD-SiC

IMDB Link: 
http://www.imdb.com/title/tt1763316/

Description:
Down a seedy city street in her neighborhood, young Enola Penny is obsessed with what appears to be a long abandoned theatre...

MediaInfo:
General
Complete name: The.Theater.Bizarre.2011.DVDSCR.AC3-2.0.XviD-SiC.avi
Format : AVI
Format/Info: Audio Video Interleave
File size: 1.65 GiB
Duration : 1h 53mn
Overall bit rate : 2 078 Kbps

Video
ID : 0
Format : MPEG-4 Visual
Format profile : Advanced Simple@L5
Format settings, BVOP: 1
Format settings, QPel: No
Format settings, GMC : No warppoints
Format settings, Matrix: Default (H.263)
Muxing mode: Packed bitstream
Codec ID : XVID
Codec ID/Hint: XviD
Duration : 1h 53mn
Bit rate : 1 877 Kbps
Width: 720 pixels
Height : 320 pixels
Display aspect ratio : 2.25:1
Frame rate : 30.000 fps
Color space: YUV
Chroma subsampling : 4:2:0
Bit depth: 8 bits
Scan type: Progressive
Compression mode : Lossy
Bits/(Pixel*Frame) : 0.272
Stream size: 1.49 GiB (90%)
Writing library: XviD 62

Audio
ID : 1
Format : AC-3
Format/Info: Audio Coding 3
Mode extension : CM (complete main)
Codec ID : 2000
Duration : 1h 53mn
Bit rate mode: Constant
Bit rate : 192 Kbps
Channel(s) : 2 channels
Channel positions: Front: L R
Sampling rate: 48.0 KHz
Bit depth: 16 bits
Compression mode : Lossy
Stream size: 156 MiB (9%)
Alignment: Aligned on interleaves
Interleave, duration : 64 ms (1.92 video frames)
Interleave, preload duration : 192 ms
Title: theaterbizarre

Screenshots:

[img]http://img21.imageshack.us/img21/9573/tbizarr2eavisnapshot000.png[/img]
[img]http://img197.imageshack.us/img197/4826/tbizarr2eavisnapshot001.png[/img]
[img]http://img39.imageshack.us/img39/1500/tbizarr2eavisnapshot002.png[/img]
[img]http://img600.imageshack.us/img600/9370/tbizarr2eavisnapshot012.png[/img]
[img]http://img812.imageshack.us/img812/9607/thetheaterbizarre2011dv.png[/img]

[/center]